<?xml version="1.0" encoding="UTF-8"?> <svg xmlns="http://www.w3.org/2000/svg" width="168" height="42" viewBox="0 0 168 42" fill="none"><path fill-rule="evenodd" clip-rule="evenodd" d="M0 21.0403C0 26.8445 2.07112 31.762 6.05406 35.8733C10.037 39.904 14.9758 42 20.7112 42C26.4467 42 31.3058 39.904 35.3684 35.8733C39.431 31.762 41.4225 26.8445 41.4225 21.0403C41.4225 15.2361 39.431 10.3186 35.3684 6.20729C31.3855 2.01536 26.4467 0 20.7112 0C15.0555 0 10.1166 2.01536 6.05406 6.12668C2.07112 10.238 0 15.2361 0 21.0403Z" fill="#22AA52"></path><path fill-rule="evenodd" clip-rule="evenodd" d="M33.1377 19.0249C33.5359 18.9443 34.0139 18.9443 34.7308 18.9443C36.1647 18.8636 36.802 18.6218 36.563 18.0575C36.4037 17.8963 36.1647 17.6544 36.0054 17.5738C35.0495 16.7677 34.0936 16.9289 33.2173 17.8157C32.9783 18.0575 32.6597 18.2993 32.4207 18.4606C32.2614 18.5412 32.0224 18.6218 31.7835 18.6218V17.4126C31.7835 16.6871 31.7038 15.9615 31.6241 15.3972C31.3852 13.9462 30.9072 12.737 30.2699 11.7696C29.3937 10.4798 28.1192 9.75424 26.4463 9.35117C26.2074 9.27056 25.9684 9.27056 25.7294 9.18994V10.3185C28.0395 10.7216 29.553 12.1727 30.2699 14.6717C30.3496 14.9942 30.4293 15.3166 30.5089 15.7197C30.6682 16.6871 30.7479 17.735 30.6682 18.9443H30.2699L20.8702 18.8636H20.7906L11.4705 18.9443H11.0722C10.9926 18.5412 10.9926 18.1381 11.0722 17.735C11.0722 16.5258 11.2315 15.4778 11.4705 14.5911C12.1078 12.1727 13.6213 10.7216 15.9314 10.3185V9.18994C15.3738 9.27056 14.8162 9.43178 14.2586 9.59301C13.0637 9.99608 12.1078 10.7216 11.3909 11.689C10.2756 13.3013 9.79768 15.5585 9.87734 18.6218C9.55871 18.6218 9.31973 18.5412 9.08076 18.4606C8.84178 18.2993 8.60281 18.1381 8.44349 17.8963L8.36383 17.8157C7.48758 16.8483 6.45202 16.7677 5.41646 17.5738C5.25714 17.5738 5.25714 17.735 5.09783 17.735C5.01817 17.8157 4.93851 17.8963 4.77919 17.9769C4.69953 18.2993 4.85885 18.5412 5.25714 18.6218C5.57578 18.7024 6.05373 18.783 6.691 18.783C7.16895 18.783 7.6469 18.8636 7.96554 18.8636C8.6028 18.8636 8.92144 18.9443 9.08076 19.1055C9.24007 19.2667 9.24007 19.3473 9.24007 19.3473C7.16895 20.3147 6.29271 22.0076 6.45202 24.426V24.5873C6.61134 27.0863 7.48758 28.6986 9.24007 29.4241C9.31973 29.5853 9.39939 29.7466 9.47905 29.9884C9.63837 30.2302 9.63837 30.5527 9.63837 30.9558C9.63837 31.1976 9.63837 31.5201 9.63837 31.7619C9.55871 32.0844 9.71803 32.165 9.957 32.2456H11.3112H13.3823C13.701 32.165 13.8603 32.0038 13.8603 31.6813C13.701 31.0364 13.8603 30.3915 14.4179 29.5047H20.7906H27.1633C27.4022 29.8272 27.4819 30.069 27.6412 30.3109C27.7209 30.5527 27.8005 30.7945 27.8005 30.9558C27.8802 31.1976 27.8005 31.4395 27.7209 31.6813C27.7209 32.0038 27.8802 32.2456 28.1988 32.2456H30.2699H31.6241C31.8631 32.2456 31.9428 32.0844 31.9428 31.7619C31.7835 30.7945 31.9428 29.9884 32.2614 29.5047C34.0139 28.8598 34.9698 27.1669 35.0495 24.5066C35.1291 23.8617 35.0495 23.2168 34.8901 22.6525C34.5715 21.2015 33.6953 20.1535 32.1818 19.4279C32.1021 19.4279 32.2614 19.3473 32.3411 19.1861C32.3411 19.1055 32.6597 19.0249 33.1377 19.0249ZM12.8247 25.8771C12.3468 26.2801 11.8688 26.522 11.2315 26.522C10.5943 26.522 10.1163 26.3608 9.63837 25.8771C9.16042 25.3934 9.0011 24.9097 9.0011 24.2648V23.9423C9.08076 23.4587 9.24007 23.0556 9.63837 22.7331C10.1163 22.2494 10.5943 22.0882 11.2315 22.0882C11.8688 22.0882 12.3468 22.3301 12.8247 22.7331C13.0637 22.975 13.223 23.1362 13.3027 23.378C13.3823 23.6199 13.462 23.9423 13.462 24.2648C13.5416 24.9097 13.3027 25.3934 12.8247 25.8771ZM26.287 25.7159H20.6313H14.9755V25.0709H20.6313H26.287V25.7159ZM26.287 24.6679H20.6313H14.9755V24.023H20.6313H26.287V24.6679ZM26.287 23.6199H20.6313H14.9755V22.975H20.6313H26.287V23.6199ZM32.1021 23.378C32.2614 23.6199 32.2614 23.9423 32.2614 24.2648C32.2614 24.9097 32.0224 25.3934 31.6241 25.8771C31.1462 26.2801 30.6682 26.522 30.031 26.522H29.9513C29.3937 26.522 28.8361 26.3608 28.4378 25.8771C27.9598 25.3934 27.8005 24.9097 27.8005 24.2648V23.9423C27.8802 23.4587 28.1192 23.0556 28.4378 22.7331C28.9157 22.2494 29.3937 22.0882 29.9513 22.0882H30.031C30.6682 22.0882 31.1462 22.3301 31.6241 22.7331C31.8631 22.8944 32.0224 23.1362 32.1021 23.378Z" fill="white"></path><path fill-rule="evenodd" clip-rule="evenodd" d="M24.6942 13.5432C24.3755 12.9789 23.8976 12.4952 23.101 12.0922C22.9417 12.0922 22.862 12.0115 22.7027 11.9309C22.3841 11.7697 22.0654 11.6085 21.7468 11.4473C21.5875 11.3666 21.4281 11.286 21.2688 11.2054V8.78698C21.4281 8.78698 21.5875 8.8676 21.7468 8.8676C22.0654 9.02882 22.2247 9.4319 22.3044 9.99619H24.4552C24.6145 9.4319 24.5348 9.02883 24.3755 8.70637C23.9772 8.06145 23.101 7.739 21.7468 7.49716C21.5875 7.49716 21.4281 7.49716 21.2688 7.41654H21.1892V6.52979H20.4722V7.41654C20.3129 7.41654 20.1536 7.41654 19.9943 7.41654C18.2418 7.57777 17.2062 8.06145 16.9673 9.10944C16.7283 10.1574 17.3656 11.0442 18.7198 11.7697C18.7994 11.7697 18.8791 11.8503 18.9587 11.9309C19.2774 12.0922 19.596 12.2534 19.9146 12.4146C19.9943 12.4952 20.074 12.5758 20.2333 12.5758C20.3129 12.5758 20.3129 12.6565 20.3926 12.6565V15.0749C20.3129 15.0749 20.3129 15.0749 20.2333 15.0749C20.1536 15.0749 19.9943 14.9943 19.9146 14.9137C19.596 14.7524 19.4367 14.3494 19.357 13.7851H17.2062V13.9463C16.8876 15.2361 17.8435 16.0423 19.9146 16.2841C20.074 16.2841 20.2333 16.3647 20.3926 16.3647V17.4127H21.1095V16.3647C21.2688 16.3647 21.4281 16.3647 21.5875 16.3647C23.4196 16.2841 24.3755 15.7198 24.6145 14.6718C24.9331 14.2687 24.8535 13.8657 24.6942 13.5432ZM20.5519 10.6411C20.3926 10.4799 20.2333 10.3993 20.074 10.238C19.596 9.75435 19.5163 9.35128 19.7553 8.94821H19.835L19.9146 8.8676C19.9146 8.8676 19.9943 8.8676 20.074 8.78698C20.1536 8.78698 20.2333 8.70637 20.3926 8.70637H20.5519V10.6411ZM22.1451 14.9137C22.0654 14.9137 22.0654 14.9943 22.0654 14.9943C22.0654 15.0749 21.9858 15.0749 21.9061 15.0749H21.8264C21.6671 15.0749 21.5875 15.1555 21.3485 15.1555V13.3014C21.5078 13.382 21.6671 13.5432 21.8264 13.7044C21.9061 13.7851 21.9061 13.7851 21.9858 13.8657C22.3044 14.1881 22.3841 14.5912 22.1451 14.9137Z" fill="white"></path><path d="M119.089 26.764C117.337 28.5375 115.027 29.4243 112.717 29.4243C106.822 29.4243 103.795 25.2323 103.795 20.4761C103.715 15.8005 106.742 11.3667 112.717 11.3667C115.027 11.3667 117.337 12.2535 119.089 14.027L118.134 14.8331C116.62 13.3014 114.708 12.5759 112.717 12.5759C107.619 12.5759 105.07 16.2035 105.07 20.3955C105.149 24.5068 107.698 28.1345 112.717 28.1345C114.708 28.1345 116.7 27.4089 118.134 25.8773L119.089 26.764Z" fill="#22AA52"></path><path d="M133.269 16.8485V29.2631H132.074V26.6028C130.879 28.5376 129.047 29.4243 127.056 29.4243C123.63 29.4243 120.842 26.8447 120.842 22.9752C120.842 19.1057 123.63 16.6067 127.056 16.6067C129.047 16.6067 131.039 17.5741 132.074 19.5088V16.7679H133.269V16.8485ZM122.037 23.0558C122.037 26.1998 124.268 28.2957 127.056 28.2957C133.906 28.2957 133.906 17.8965 127.056 17.8965C124.268 17.8159 122.037 19.9119 122.037 23.0558Z" fill="#22AA52"></path><path d="M137.729 16.8485L137.809 19.0251C138.606 17.3322 140.358 16.6873 141.872 16.6873C142.828 16.6873 143.704 16.9291 144.5 17.4128L143.943 18.3802C143.306 17.9771 142.589 17.8159 141.872 17.8159C139.562 17.8159 137.809 19.67 137.809 22.0078V29.2631H136.614V16.8485H137.729Z" fill="#22AA52"></path><path d="M147.448 16.8485L147.528 19.0251C148.324 17.3322 150.077 16.6873 151.59 16.6873C152.546 16.6873 153.423 16.9291 154.219 17.4128L153.662 18.3802C153.024 17.9771 152.307 17.8159 151.59 17.8159C149.28 17.8159 147.528 19.67 147.528 22.0078V29.2631H146.333V16.8485H147.448Z" fill="#22AA52"></path><path d="M155.494 23.0558C155.494 19.1057 158.282 16.6067 161.707 16.6067C165.132 16.6067 167.92 19.1057 167.92 23.0558C167.92 27.0059 165.132 29.4243 161.707 29.4243C158.282 29.4243 155.494 27.0059 155.494 23.0558ZM166.805 23.0558C166.805 19.8313 164.575 17.7353 161.787 17.7353C158.999 17.7353 156.768 19.8313 156.768 23.0558C156.768 26.2804 158.999 28.2151 161.787 28.2151C164.575 28.2151 166.805 26.2804 166.805 23.0558Z" fill="#22AA52"></path><path d="M49.2289 11.6086H45.9629V29.2632H49.2289V11.6086Z" fill="#585F69"></path><path d="M49.2289 11.6086H45.9629V29.2632H49.2289V11.6086Z" fill="#585F69"></path><path d="M61.0982 29.2631V22.7333C61.0982 20.8792 60.0626 19.4281 58.1508 19.4281C56.3187 19.4281 55.0441 21.0404 55.0441 22.8945V29.2631H52.0171V16.8485H54.7255L54.8848 18.5414C56.1593 17.3322 57.3542 16.6873 58.9474 16.6873C61.8151 16.6873 64.1252 18.8638 64.1252 22.8139V29.3437H61.0982V29.2631Z" fill="#585F69"></path><path d="M61.0982 29.2631V22.7333C61.0982 20.8792 60.0626 19.4281 58.1508 19.4281C56.3187 19.4281 55.0441 21.0404 55.0441 22.8945V29.2631H52.0171V16.8485H54.7255L54.8848 18.5414C56.1593 17.3322 57.3542 16.6873 58.9474 16.6873C61.8151 16.6873 64.1252 18.8638 64.1252 22.8139V29.3437H61.0982V29.2631Z" fill="#585F69"></path><path d="M74.7994 20.1537C73.9232 19.3476 72.9673 19.0251 71.7724 19.0251C70.3385 19.0251 69.542 19.5088 69.542 20.2343C69.542 21.0405 70.2589 21.5242 71.8521 21.6048C74.1622 21.766 77.1095 22.2497 77.1095 25.5549C77.1095 27.7315 75.357 29.6662 71.8521 29.6662C69.9402 29.6662 67.9488 29.3437 66.1963 27.4896L67.7098 25.313C68.586 26.2804 70.5775 27.0059 71.9317 27.0865C73.0469 27.0865 74.1622 26.5222 74.1622 25.6355C74.1622 24.7487 73.4452 24.4263 71.6927 24.3457C69.3826 24.1844 66.5946 23.2977 66.5946 20.4762C66.5946 17.5741 69.542 16.6067 71.7724 16.6067C73.6842 16.6067 75.1181 17.0098 76.5519 18.219L74.7994 20.1537Z" fill="#585F69"></path><path d="M74.7994 20.1537C73.9232 19.3476 72.9673 19.0251 71.7724 19.0251C70.3385 19.0251 69.542 19.5088 69.542 20.2343C69.542 21.0405 70.2589 21.5242 71.8521 21.6048C74.1622 21.766 77.1095 22.2497 77.1095 25.5549C77.1095 27.7315 75.357 29.6662 71.8521 29.6662C69.9402 29.6662 67.9488 29.3437 66.1963 27.4896L67.7098 25.313C68.586 26.2804 70.5775 27.0059 71.9317 27.0865C73.0469 27.0865 74.1622 26.5222 74.1622 25.6355C74.1622 24.7487 73.4452 24.4263 71.6927 24.3457C69.3826 24.1844 66.5946 23.2977 66.5946 20.4762C66.5946 17.5741 69.542 16.6067 71.7724 16.6067C73.6842 16.6067 75.1181 17.0098 76.5519 18.219L74.7994 20.1537Z" fill="#585F69"></path><path d="M83.2434 13.3015V16.8485H86.5891V19.5088H83.1638V24.91C83.1638 26.1192 83.801 26.6835 84.757 26.6835C85.2349 26.6835 85.7925 26.5222 86.1908 26.2804L87.067 28.8601C86.1908 29.1825 85.4739 29.3437 84.518 29.4244C81.8892 29.505 80.1368 27.9733 80.1368 24.91V19.5088H77.8267V16.8485H80.1368V13.624L83.2434 13.3015Z" fill="#585F69"></path><path d="M83.2434 13.3015V16.8485H86.5891V19.5088H83.1638V24.91C83.1638 26.1192 83.801 26.6835 84.757 26.6835C85.2349 26.6835 85.7925 26.5222 86.1908 26.2804L87.067 28.8601C86.1908 29.1825 85.4739 29.3437 84.518 29.4244C81.8892 29.505 80.1368 27.9733 80.1368 24.91V19.5088H77.8267V16.8485H80.1368V13.624L83.2434 13.3015Z" fill="#585F69"></path><path d="M98.6173 16.8483H101.565V29.2629H98.697L98.5377 27.4894C97.8208 28.9405 95.9089 29.666 94.5547 29.666C90.8904 29.666 88.2617 27.4088 88.2617 23.0556C88.2617 18.7831 91.0498 16.5259 94.6344 16.5259C96.3072 16.5259 97.8208 17.332 98.5377 18.5412L98.6173 16.8483ZM91.2887 23.0556C91.2887 25.3934 92.8819 26.8445 94.953 26.8445C99.7326 26.8445 99.7326 19.3474 94.953 19.3474C92.8819 19.2668 91.2887 20.6372 91.2887 23.0556Z" fill="#585F69"></path><path d="M98.6173 16.8483H101.565V29.2629H98.697L98.5377 27.4894C97.8208 28.9405 95.9089 29.666 94.5547 29.666C90.8904 29.666 88.2617 27.4088 88.2617 23.0556C88.2617 18.7831 91.0498 16.5259 94.6344 16.5259C96.3072 16.5259 97.8208 17.332 98.5377 18.5412L98.6173 16.8483ZM91.2887 23.0556C91.2887 25.3934 92.8819 26.8445 94.953 26.8445C99.7326 26.8445 99.7326 19.3474 94.953 19.3474C92.8819 19.2668 91.2887 20.6372 91.2887 23.0556Z" fill="#585F69"></path></svg> 